<?xml version="1.0" encoding="iso-8859-1"?>
<!-- Generator: Adobe Illustrator 25.2.3, SVG Export Plug-In . SVG Version: 6.00 Build 0)  -->
<svg fill="#62d0f5" version="1.1" baseProfile="basic" id="Layer_1"
	 xmlns="http://www.w3.org/2000/svg" xmlns:xlink="http://www.w3.org/1999/xlink" x="0px" y="0px" viewBox="0 0 72 72"
	 xml:space="preserve">
<path d="M51.69,50.67c-1.65,1.65-3.46,1.49-4.24,0.71s-7.522-7.602-7.73-7.81s-0.528-0.193-0.73,0.01c-0.2,0.2-0.22,0.54-0.02,0.73
	s5.62,5.62,6.55,6.55s1.13,2.03,0.34,2.82c-0.959,0.959-2.294,1.722-3.658,1.835c-1.069,0.088-2.156-0.223-3.092-1.155
	s-6.32-6.31-6.51-6.51s-0.51-0.2-0.7,0c-0.2,0.19-0.2,0.51,0,0.7s4.91,4.92,5.84,5.85s1.13,2.03,0.34,2.82
	c-0.997,0.997-2.403,1.784-3.824,1.843c-1.015,0.043-2.038-0.286-2.926-1.173S26.44,53,26.24,52.8s-0.51-0.2-0.71,0
	c-0.19,0.19-0.19,0.51,0,0.7c1,1,3.81,3.8,4.32,4.32c0.48,0.49,0.34,1.2,0.01,1.76c-0.34,0.6-1.36,1.35-2.44,1.82
	c-1.92,0.83-6.2-0.96-10.16-4.93c-4.88-4.854-5.264-5.04-10.32-13.12c-1.78-2.84-2.21-6.33-1.21-9.53l3.05-9.76
	c0.72-2.3,2.85-3.86,5.25-3.86h1.14c1.95,0,3.9-0.35,5.7-1.1c1.81-0.75,3.76-1.1,5.72-1.1h4.64c-0.619,0.43-0.994,0.904-1.1,1.03
	c-1.88,2.22-4.01,4.73-5.66,5.35c-1.33,0.51-4.88,1.85-4.4,5.1c0.24,1.63,1.81,3.52,5.48,3.52c2.76,0,6.15-1.06,10.1-3.17
	c0,0,15.97,15.82,16.75,16.6S53.34,49.02,51.69,50.67z"/>
<path d="M66.311,31.817c1.258,4.027-0.518,8.381-4.234,10.378l-8.104,4.355L36.35,29.12c-0.312-0.309-0.794-0.37-1.181-0.163
	c-9.515,5.071-13.755,2.806-14.111,0.38c-0.295-2.006,1.442-3.139,3.768-4.017c1.92-0.725,4.151-3.383,6.181-5.775
	C31.84,18.562,33.063,18,34.351,18l11.065,0c1.99,0,3.961,0.386,5.805,1.137c1.781,0.726,3.697,1.063,5.621,1.063l1.795,0
	c2.406,0,4.533,1.564,5.25,3.86L66.311,31.817z"/>
</svg>