<svg xmlns="http://www.w3.org/2000/svg" width="512" height="512" viewBox="0 0 512 512" fill="none">
  <defs>
    <style>
      .c { fill:#62d0fd; stroke:#62d0fd; }
      .s { stroke:#62d0fd; }
      .w { fill:#ffffff; stroke:#ffffff; }
    </style>
  </defs>
  <path d="M58 118 L58 394 L118 414 L118 136 Z" class="c" fill-opacity="0.14" stroke-width="1.5"/>
  <path d="M118 136 L118 414 L182 398 L182 151 Z" class="c" fill-opacity="0.14" stroke-width="1.5"/>
  <path d="M182 151 L182 398 L330 432 L330 166 Z" class="c" fill-opacity="0.14" stroke-width="1.5"/>
  <path d="M330 166 L330 432 L454 398 L454 136 Z" class="c" fill-opacity="0.14" stroke-width="1.5"/>
  <path d="M118 136 L118 153 M118 355 L118 414" class="s" stroke-width="2" stroke-linecap="round" opacity="0.7"/>
  <path d="M182 151 L182 166 M182 340 L182 398" class="s" stroke-width="2" stroke-linecap="round" opacity="0.7"/>
  <path d="M330 166 L330 182 M330 340 L330 432" class="s" stroke-width="2" stroke-linecap="round" opacity="0.7"/>
  <path d="M 100.86 187.55 L 120.40 187.55 L 126.87 187.55 L 146.94 187.55 L 166.36 187.55 L 186.11 187.55 L 205.87 187.55 L 228.24 187.55 L 250.77 187.54 L 264.39 187.55 L 264.41 185.02 L 266.64 184.98 L 267.81 188.60 L 269.85 189.71 L 274.45 190.12 L 281.17 191.17 L 287.56 193.21 L 292.89 192.35 L 300.99 194.06 L 303.14 194.00 L 309.03 192.13 L 315.21 194.52 L 321.64 197.07 L 326.97 199.26 L 332.09 201.37 L 332.72 203.10 L 334.27 203.75 L 333.87 204.40 L 335.64 204.60 L 336.92 203.92 L 337.25 205.48 L 338.57 206.53 L 340.38 206.53 L 341.34 207.33 L 340.53 208.50 L 347.39 211.59 L 348.80 217.56 L 350.11 223.29 L 348.19 227.18 L 345.09 230.80 L 343.65 233.10 L 343.50 233.79 L 344.24 234.73 L 346.48 235.77 L 348.13 235.77 L 355.77 232.25 L 362.56 231.22 L 371.17 227.94 L 371.30 227.28 L 370.70 225.27 L 369.64 223.97 L 372.61 222.93 L 379.08 222.90 L 385.12 222.91 L 387.23 220.34 L 388.05 219.83 L 395.01 215.09 L 397.98 213.88 L 407.98 213.83 L 420.11 213.82 L 420.77 212.20 L 422.88 211.87 L 425.67 210.85 L 428.01 207.85 L 430.02 202.73 L 435.04 197.76 L 437.23 199.49 L 441.64 198.38 L 444.56 200.27 L 444.56 209.25 L 448.86 212.97 L 450.00 215.13 L 442.97 218.32 L 436.21 220.59 L 429.25 222.54 L 425.77 226.45 L 424.65 227.93 L 424.59 231.42 L 426.76 234.91 L 429.49 235.08 L 428.80 232.67 L 430.77 234.14 L 430.25 236.02 L 425.80 237.08 L 422.64 236.96 L 417.77 238.10 L 414.91 238.43 L 411.08 238.76 L 405.59 240.66 L 415.26 239.42 L 417.21 240.67 L 408.00 242.65 L 403.80 242.66 L 404.00 241.85 L 401.99 243.68 L 403.93 243.98 L 402.51 248.71 L 397.72 253.78 L 397.23 252.08 L 395.78 251.74 L 393.63 250.10 L 394.99 253.64 L 396.63 254.81 L 396.73 257.30 L 394.62 259.86 L 390.91 265.12 L 390.31 264.85 L 392.35 260.38 L 388.99 257.86 L 388.21 252.39 L 386.95 255.24 L 388.35 259.41 L 384.00 258.38 L 388.53 260.50 L 388.82 266.77 L 390.70 267.22 L 391.39 269.50 L 392.31 276.08 L 388.13 280.97 L 381.32 282.92 L 376.99 286.78 L 373.70 287.21 L 370.37 289.63 L 369.43 291.83 L 362.20 296.11 L 358.49 299.24 L 355.39 303.14 L 354.37 307.82 L 355.54 312.39 L 357.73 318.02 L 360.66 322.68 L 360.70 325.53 L 363.81 333.17 L 363.61 337.60 L 363.32 340.17 L 361.68 344.19 L 359.71 345.02 L 356.47 344.22 L 355.43 341.33 L 352.93 339.82 L 349.44 334.15 L 346.38 329.12 L 345.39 326.54 L 346.74 322.17 L 344.90 318.55 L 339.76 313.04 L 337.19 312.03 L 330.55 315.02 L 329.37 314.69 L 326.18 311.62 L 322.05 309.99 L 314.61 310.82 L 308.77 310.09 L 303.75 310.55 L 301.03 311.57 L 302.21 313.32 L 302.11 315.99 L 303.50 317.29 L 302.25 318.16 L 299.81 317.19 L 297.34 318.44 L 292.56 318.23 L 287.64 314.75 L 281.90 315.57 L 277.11 314.05 L 273.02 314.51 L 267.48 316.05 L 261.49 320.93 L 254.94 323.77 L 251.35 326.91 L 249.84 329.87 L 249.77 334.42 L 250.10 337.58 L 251.35 339.82 L 248.78 340.01 L 244.11 338.56 L 238.97 336.52 L 237.13 333.43 L 235.68 328.82 L 231.80 325.07 L 229.52 321.21 L 226.22 316.70 L 221.58 314.08 L 216.19 314.21 L 212.05 319.41 L 206.58 317.43 L 203.18 315.44 L 201.54 311.83 L 199.36 308.39 L 195.45 305.49 L 192.08 303.41 L 189.68 301.08 L 178.28 301.07 L 178.26 303.79 L 173.04 303.79 L 159.95 303.84 L 144.93 299.20 L 134.99 296.00 L 135.61 294.71 L 127.25 295.43 L 119.77 295.94 L 118.66 292.57 L 114.39 288.79 L 111.32 288.00 L 110.60 286.11 L 106.91 285.78 L 104.55 284.00 L 98.44 283.35 L 96.76 282.29 L 95.96 278.68 L 89.57 272.06 L 84.09 262.91 L 84.32 261.39 L 81.42 259.21 L 76.32 253.70 L 75.41 248.33 L 71.90 244.73 L 73.35 239.28 L 73.12 233.63 L 71.02 228.59 L 73.59 222.38 L 74.39 216.41 L 75.19 210.43 L 74.00 201.60 L 71.92 195.97 L 70.00 192.91 L 70.80 191.63 L 80.32 193.87 L 83.82 200.08 L 85.45 198.34 L 84.40 192.94 L 82.16 187.55 L 100.86 187.55 Z" fill="#62d0fd" stroke="#62d0fd" stroke-width="1.2"/>
  <path d="M 84.93 261.44 Q 244.29 326.44 403.65 242.10" stroke="#ffffff" stroke-width="4" stroke-linecap="round" stroke-dasharray="2 11" fill="none" opacity="0.98"/>
  <g transform="translate(84.93 259.44) scale(0.34)">
    <path d="M0 -2 C-10 -2 -18 6 -18 16 C-18 29 -5 43 0 50 C5 43 18 29 18 16 C18 6 10 -2 0 -2 Z" class="w" stroke-width="2.4"/>
    <circle cx="0" cy="16" r="6.2" fill="#62d0fd"/>
  </g>
  <g transform="translate(403.65 240.10) scale(0.34)">
    <path d="M0 -2 C-10 -2 -18 6 -18 16 C-18 29 -5 43 0 50 C5 43 18 29 18 16 C18 6 10 -2 0 -2 Z" class="w" stroke-width="2.4"/>
    <circle cx="0" cy="16" r="6.2" fill="#62d0fd"/>
  </g>
</svg>