<?xml version="1.0" encoding="iso-8859-1"?>
<!-- Generator: Adobe Illustrator 24.1.2, SVG Export Plug-In . SVG Version: 6.00 Build 0)  -->
<svg fill="#62d0f5" version="1.1" id="Layer_1" xmlns="http://www.w3.org/2000/svg" xmlns:xlink="http://www.w3.org/1999/xlink" x="0px" y="0px"
	 viewBox="0 0 64 64" style="enable-background:new 0 0 64 64;" xml:space="preserve">
<path d="M30.53,38.8c-0.2-1.08-0.55-2.22-0.66-3.54c-0.12-1.32,0.09-2.64,0.38-3.81c0.21-0.84,0.43-1.61,0.55-2.34
	c0.01,0,0-0.01,0-0.01c0.01-0.53,0.04-1.12,0.09-1.78c-0.14-1.72-0.86-3.44-2.17-4.01c-0.38-0.17-0.8-0.26-1.25-0.27
	c-0.41,0.01-0.74,0.11-1.02,0.31c-0.57,0.4-0.96,1.38-1.14,2.41c-0.1,0.51-0.16,1.05-0.19,1.6c-0.02,0.49-0.08,1.29-0.24,1.9
	c-0.32,1.27-0.86,2.35-1.35,3.39c-0.807,1.615-1.475,3.219-1.819,4.92l-1.222-0.407c0.045-0.607,0.137-1.211,0.271-1.803
	c0.28-1.19,0.68-2.34,1.11-3.43c0.44-1.08,0.87-2.12,1.1-3.12c0.11-0.52,0.12-0.89,0.15-1.56c0.03-0.61,0.08-1.23,0.2-1.86
	c0.11-0.62,0.26-1.26,0.54-1.9c0.28-0.63,0.69-1.3,1.35-1.79c0.65-0.5,1.5-0.74,2.24-0.74c0.63,0,1.28,0.1,1.88,0.34
	C30.2,16.76,31,11.64,31,8c0-4-2.8-4-2.8-4c-1.02,0-1.5,1.02-1.7,2c-1,5-7.13,17.05-7.78,20.83c-0.66,3.84-1.82,8.27-2.55,16.1
	c-0.12,1.3-0.86,2.46-1.99,3.11L9,49l10,12l7.14-6.54c2.7-2.47,4.38-5.83,4.77-9.44l-0.02-2.93C30.85,40.97,30.74,39.88,30.53,38.8z
	"/>
<path d="M49.82,46.04c-1.13-0.65-1.87-1.81-1.99-3.11c-0.73-7.83-1.89-12.26-2.55-16.1C44.63,23.05,38.5,11,37.5,6
	c-0.2-0.98-0.68-2-1.7-2c0,0-2.8,0-2.8,4c0,3.64,0.8,8.76,1.67,13.3c0.6-0.24,1.25-0.34,1.88-0.34c0.74,0,1.59,0.24,2.24,0.74
	c0.66,0.49,1.07,1.16,1.35,1.79c0.28,0.64,0.43,1.28,0.54,1.9c0.12,0.63,0.17,1.25,0.2,1.86c0.03,0.67,0.04,1.04,0.15,1.56
	c0.23,1,0.66,2.04,1.1,3.12c0.43,1.09,0.83,2.24,1.11,3.43c0.134,0.592,0.226,1.196,0.271,1.803l-1.222,0.407
	c-0.344-1.701-1.012-3.305-1.819-4.92c-0.49-1.04-1.03-2.12-1.35-3.39c-0.16-0.61-0.22-1.41-0.24-1.9c-0.03-0.55-0.09-1.09-0.19-1.6
	c-0.18-1.03-0.57-2.01-1.14-2.41c-0.28-0.2-0.61-0.3-1.02-0.31c-0.45,0.01-0.87,0.1-1.25,0.27c-1.31,0.57-2.03,2.29-2.17,4.01
	c0.05,0.66,0.08,1.25,0.09,1.78c0,0-0.01,0.01,0,0.01c0.12,0.73,0.34,1.5,0.55,2.34c0.29,1.17,0.5,2.49,0.38,3.81
	c-0.11,1.32-0.46,2.46-0.66,3.54c-0.21,1.08-0.32,2.17-0.36,3.29l-0.02,2.93c0.39,3.61,2.07,6.97,4.77,9.44L45,61l10-12L49.82,46.04
	z"/>
</svg>