<svg xmlns="http://www.w3.org/2000/svg" xmlns:xlink="http://www.w3.org/1999/xlink" viewBox="0,0,256,256" width="150px" height="150px" fill-rule="nonzero"><g fill="#b3b3b3" fill-rule="nonzero" stroke="none" stroke-width="1" stroke-linecap="butt" stroke-linejoin="miter" stroke-miterlimit="10" stroke-dasharray="" stroke-dashoffset="0" font-family="none" font-weight="none" font-size="none" text-anchor="none" style="mix-blend-mode: normal"><g transform="scale(5.12,5.12)"><path d="M25,0c-1.02344,0 -2.97656,0.20703 -4.59375,1.59375c-0.23437,0.17578 -0.73828,0.61328 -1.65625,1.40625h12.5c-0.80078,-0.70703 -1.37891,-1.21484 -1.59375,-1.375c-1.66406,-1.42578 -3.63672,-1.625 -4.65625,-1.625zM9,5c-0.55078,0 -1,0.44922 -1,1v19.25l8.3125,6.53125c2.14453,-1.6875 3.71875,-2.91016 4.09375,-3.1875c2.01563,-1.47656 4.02734,-1.59375 4.59375,-1.59375c0.97266,0 2.86328,0.21484 4.625,1.625c0.35938,0.28906 1.88672,1.49609 4,3.15625l8.375,-6.53125v-19.25c0,-0.55078 -0.44531,-1 -1,-1zM24,10h2v6h6v2h-6v6h-2v-6h-6v-2h6zM6,14.21875c-3.22266,2.85547 -5.65625,5.03125 -5.65625,5.03125l5.65625,4.4375zM44,14.21875v9.46875l5.65625,-4.4375c0,0 -2.43359,-2.17578 -5.65625,-5.03125zM0,21.53125v23.125c3.45313,-2.73047 9.95703,-7.84766 14.71875,-11.59375l-6.71875,-5.25l-0.28125,-0.21875zM50,21.53125l-6,4.6875l-2,1.59375v-0.03125l-6.75,5.28125c4.74609,3.72656 11.26953,8.83203 14.75,11.5625zM25,29c-0.29297,0 -1.83984,0.07031 -3.40625,1.21875c-1.26953,0.93359 -17.19141,13.48828 -21.59375,16.96875v1.8125c0,0.55469 0.44922,1 1,1h48c0.55469,0 1,-0.44531 1,-1v-1.84375c-4.50391,-3.53125 -20.34375,-15.94531 -21.625,-16.96875c-1.28516,-1.03125 -2.66406,-1.1875 -3.375,-1.1875z"></path></g></g></svg>